<?xml version="1.0" encoding="utf-8"?>
<!-- Generator: Adobe Illustrator 27.8.1, SVG Export Plug-In . SVG Version: 6.00 Build 0)  -->
<svg version="1.1" id="Layer_1" xmlns="http://www.w3.org/2000/svg" xmlns:xlink="http://www.w3.org/1999/xlink" x="0px" y="0px"
	 viewBox="0 0 1016 384.9" style="enable-background:new 0 0 1016 384.9;" xml:space="preserve">
<path d="M698.3,1.4c-47.1,8.5-79,46.2-84.4,99.6c-1.9,19.5,1.9,44.7,9.5,62.7c9.3,22.1,25.2,39.4,45.6,49.7
	c21.7,11,53.8,14.2,77.5,7.8c8.2-2.2,19-7.2,26.1-12.1c6.1-4.2,15.8-13.7,21.1-20.7c3.1-4.1,8.3-12.7,8.3-13.7
	c0-0.3-1.1-1.3-2.5-2.2c-2.4-1.6-2.5-1.5-5.6,3.2c-5.3,7.7-14.9,17.2-22.5,22.2c-18.2,12-47.8,15.3-68.9,7.6
	c-24.5-8.9-40.1-29.6-47.2-62.6c-2.2-9.9-2.5-14.2-2.6-31c-0.1-14.6,0.4-22,1.7-29.5c6.5-36.6,24-59.9,51.1-68.1
	c8.2-2.5,28.4-2.5,37.5,0c22.9,6.2,40.3,23.4,47.5,47.1c2,6.6,2.3,7,5.4,7.3l3.3,0.3l-0.7-17.3c-0.4-9.5-1-24.5-1.4-33.3l-0.6-16
	l-2.6-0.3c-2.3-0.3-2.7,0.1-3.3,3.4c-0.4,2-1.8,4.7-3.1,6c-3.8,3.8-8.6,3.2-22.7-2.7C748.4,1.9,738.3-0.1,720,0
	C712,0,702.3,0.7,698.3,1.4L698.3,1.4z M216.2,4.6c0.3,2.6,0.7,2.9,6.2,3.5c7.1,0.9,11.4,3.3,14.1,7.8c2,3.5,2,4.8,2,95
	c0,88.3-0.1,91.6-1.9,94.7c-2.6,4.3-8,7.1-15.7,8c-6,0.8-6.4,1-6.7,3.5l-0.3,2.8H296v-3c0-2.8-0.2-3-3.8-3c-5.9,0-13.5-2.7-16.4-5.7
	c-1.5-1.6-3.2-4.8-3.8-7.3c-0.8-3.2-1-30.7-0.8-93c0.3-86.7,0.3-88.6,2.3-92c2.4-4,9.3-8,14.1-8c4.8,0,6.4-0.9,6.4-3.6V1.9h-78.1
	L216.2,4.6L216.2,4.6z M309.2,4.6c0.3,2.5,0.8,2.9,4.9,3.4c6.5,1,12.5,4.3,15.4,8.7c1.4,2.1,18,48.7,37,103.6
	c18.9,54.8,34.7,100.1,35,100.7c0.4,0.5,1.7,0.9,3,0.9c2.6,0-1.1,8.3,36.6-82.2c13.4-32.3,24.6-58.8,24.9-58.8s11.1,30.4,24,67.5
	c12.8,37.2,24,68.9,24.7,70.5c1.6,4.1,5.7,4.2,7.1,0.2c7.1-20.1,70.9-191.7,72.4-194.5c4.3-8.6,12.2-14.9,20.3-16.2
	c8.2-1.3,8.5-1.4,8.5-4V1.9h-69v2.4c0,2.6,1.6,3.6,5.9,3.6c1.5,0,4.9,0.7,7.5,1.6c9.3,3.2,10.4,9.4,5,26.6
	c-3.6,11.3-42.3,117.1-43.3,118.1c-1.1,1.1-45.3-127.5-45.9-133.4c-0.3-3.4,0-5.6,1.1-7.3c1.8-2.7,7.8-5.2,15-6.1
	c4.1-0.6,4.7-0.9,4.7-3.1V1.9h-81v2.4c0,2.6,0.8,3,7.7,4.1c5.2,0.8,10,3.9,13,8.3c2.1,3.2,14.3,38.2,14.3,41.1
	c0,1.7-41.2,102.3-41.7,101.8c-0.2-0.2-10.7-30.4-23.3-67.1c-24.1-69.9-25-73.3-21.4-78.5c2-2.7,8.8-6,12.6-6.1c4.2,0,5.8-1,5.8-3.6
	V1.9h-81.1L309.2,4.6L309.2,4.6z M17.8,319.3C8.1,322,3,328.4,3,338.2c0,10,4.5,14,21,18.8c5.5,1.6,10.9,3.5,12,4.1
	c5.1,3.2,3.9,11.6-2,13.7c-6.7,2.3-14.5,0.8-22.4-4.2l-4.8-3l-3.4,3.9l-3.3,3.9l2.2,1.9c4.8,4.1,14.8,7.9,22.1,8.4
	c16.7,1,27.3-7.3,26.3-20.6c-0.6-8.8-5.8-13.7-18.1-17.3C17,343.3,14,341.4,14,336.1c0-7.4,12.9-9.8,23.4-4.2l5.6,2.9l3.1-4.2l3-4.1
	l-2.3-1.8C40.4,319.7,26,317,17.8,319.3z M103.9,319.2c-10.3,2.9-17.1,8.8-21.8,18.7c-3.5,7.4-3.7,21-0.4,28.2
	c2.8,6.2,9.6,13.4,15.8,16.6c4.5,2.4,6.1,2.7,15.5,2.7c11.6,0,15.2-1.2,22.5-7.7l3.6-3.1l-3.2-3.3c-3.7-3.8-5-4.1-7-1.8
	c-4.7,5.7-18,7.6-25.4,3.7c-8.2-4.3-11.9-10.8-12-20.8c0-5.6,0.5-8,2.6-12c6.1-12,20.7-15.2,32.7-7.2l4.8,3.3l3.7-4.2l3.7-4.3
	l-3.3-2.5C127.3,319.1,113.7,316.4,103.9,319.2L103.9,319.2z M807.7,319c-11.3,2.7-17.9,11.7-16.2,22.1c1.3,7.8,8.2,12.7,22.8,16.4
	c9.3,2.3,13.1,5,13.5,9.5c0.8,9.8-14.5,11.9-27.5,3.7l-4.7-3l-3.5,3.8l-3.4,3.7l3.4,2.9c7.9,6.6,23.9,9.6,33.8,6.3
	c10.3-3.4,15.9-13.2,13.2-23.2c-2-7.2-7.1-10.5-23.7-15.3c-9.2-2.6-12.4-5.1-12.4-9.5c0-7.9,11.5-10.2,22.6-4.5c3.2,1.6,6,3,6.1,3
	c1,0,5.3-8.1,4.8-9c-1.2-2-10.1-5.8-16-6.9C813.8,317.8,813,317.8,807.7,319L807.7,319z M171,351.9v33h12v-28h31v28h12v-66h-12v28
	h-30.9l-0.3-13.8l-0.3-13.7l-5.7-0.3l-5.8-0.3V351.9z M285.7,319.7c-0.5,0.7-18.1,40.9-25.3,57.4l-3.3,7.8h11.6l3.6-8l3.6-8h30.9
	l3.3,8l3.3,8h5.8c3.2,0,5.8-0.3,5.8-0.7c0-0.4-6.4-15.3-14.1-33l-14.2-32.3h-5.3C288.5,318.9,285.9,319.2,285.7,319.7z M301.5,357
	c0.6,1.8-0.1,1.9-10.4,1.9c-6.1,0-11.1-0.1-11.1-0.3c0-0.2,1.8-4.6,4.1-9.8c2.2-5.2,4.7-11,5.5-12.9l1.5-3.5l4.9,11.4
	C298.7,350,301.2,356,301.5,357L301.5,357z M356,351.9v33h12v-27h33v-10h-33v-18h37v-11h-49V351.9z M439,351.9v33h10.9l0.3-13.3
	l0.3-13.2l16.8-0.3l16.7-0.2v-10l-16.7-0.2l-16.8-0.3l-0.3-8.8l-0.3-8.7H488v-11h-49V351.9z M520,351.9v33h12v-28h31v28h12v-66h-12
	v28h-30.9l-0.3-13.8l-0.3-13.7l-5.7-0.3l-5.8-0.3V351.9z M623.8,350.1c-7.5,17.2-14,32.1-14.3,33c-0.6,1.6,0,1.8,5.1,1.8h5.9l3.4-8
	l3.3-8l15.6,0.2l15.6,0.3l3.2,7.5l3.1,7.5l6.2,0.3c3.5,0.2,6.1-0.1,6-0.6c-0.2-0.5-6.7-15.4-14.4-33l-14-32.1l-5.6-0.1h-5.5
	L623.8,350.1L623.8,350.1z M647.5,343.4c2.1,4.9,4.4,10.5,5.2,12.2l1.3,3.3h-22.8l5.6-13c3-7.2,5.9-12.7,6.2-12.3
	C643.4,334.1,645.4,338.4,647.5,343.4z M702,341.2c0,26.6,0.8,30.5,7.5,37.2c11,11,35.1,9.5,43.2-2.6c4.6-7,5.3-11.6,5.3-35.1v-21.8
	h-10.8l-0.4,22.2c-0.3,25.1-1,27.9-7.5,32c-4.7,2.8-13.9,3-18,0.3c-7.3-4.8-8.3-8.9-8.3-34.4v-20.1h-11V341.2z M873,351.9v33h49v-10
	h-37v-18h33v-10h-33v-18h37v-10h-49V351.9z M959,351.8v33.1h11l0.2-23l0.3-23.1l17.8,23.1l17.8,23h9.9v-66h-11v22.7
	c0,21.4-0.1,22.6-1.7,21c-0.9-0.9-8.9-11-17.8-22.4l-16-20.8l-5.3-0.3l-5.2-0.3V351.8L959,351.8z"/>
</svg>
